<mxfile host="app.diagrams.net" modified="2023-11-01T03:00:23.427Z" agent="Mozilla/5.0 (Windows NT 10.0; Win64; x64) AppleWebKit/537.36 (KHTML, like Gecko) Chrome/118.0.0.0 Safari/537.36" etag="9yxvJrTQDcDpoH4iqKGQ" version="22.0.8" type="github">
  <diagram id="C5RBs43oDa-KdzZeNtuy" name="Page-1">
    <mxGraphModel dx="1591" dy="826" grid="1" gridSize="10" guides="1" tooltips="1" connect="1" arrows="1" fold="1" page="1" pageScale="1" pageWidth="1169" pageHeight="827" math="0" shadow="0">
      <root>
        <mxCell id="WIyWlLk6GJQsqaUBKTNV-0" />
        <mxCell id="WIyWlLk6GJQsqaUBKTNV-1" parent="WIyWlLk6GJQsqaUBKTNV-0" />
        <mxCell id="7zTR-X2xP12r-fFkZYNF-0" value="user" style="swimlane;fontStyle=2;align=center;verticalAlign=top;childLayout=stackLayout;horizontal=1;startSize=26;horizontalStack=0;resizeParent=1;resizeLast=0;collapsible=1;marginBottom=0;rounded=0;shadow=0;strokeWidth=1;" parent="WIyWlLk6GJQsqaUBKTNV-1" vertex="1">
          <mxGeometry x="57" y="74" width="160" height="294" as="geometry">
            <mxRectangle x="230" y="140" width="160" height="26" as="alternateBounds" />
          </mxGeometry>
        </mxCell>
        <mxCell id="7zTR-X2xP12r-fFkZYNF-1" value="- id_user int(11)&#xa;" style="text;align=left;verticalAlign=top;spacingLeft=4;spacingRight=4;overflow=hidden;rotatable=0;points=[[0,0.5],[1,0.5]];portConstraint=eastwest;" parent="7zTR-X2xP12r-fFkZYNF-0" vertex="1">
          <mxGeometry y="26" width="160" height="26" as="geometry" />
        </mxCell>
        <mxCell id="7zTR-X2xP12r-fFkZYNF-2" value="- username varchar(50)" style="text;align=left;verticalAlign=top;spacingLeft=4;spacingRight=4;overflow=hidden;rotatable=0;points=[[0,0.5],[1,0.5]];portConstraint=eastwest;rounded=0;shadow=0;html=0;" parent="7zTR-X2xP12r-fFkZYNF-0" vertex="1">
          <mxGeometry y="52" width="160" height="26" as="geometry" />
        </mxCell>
        <mxCell id="7zTR-X2xP12r-fFkZYNF-3" value="- password varchar(50)" style="text;align=left;verticalAlign=top;spacingLeft=4;spacingRight=4;overflow=hidden;rotatable=0;points=[[0,0.5],[1,0.5]];portConstraint=eastwest;rounded=0;shadow=0;html=0;" parent="7zTR-X2xP12r-fFkZYNF-0" vertex="1">
          <mxGeometry y="78" width="160" height="26" as="geometry" />
        </mxCell>
        <mxCell id="7zTR-X2xP12r-fFkZYNF-6" value="- nama_lengkap varchar(50)" style="text;align=left;verticalAlign=top;spacingLeft=4;spacingRight=4;overflow=hidden;rotatable=0;points=[[0,0.5],[1,0.5]];portConstraint=eastwest;rounded=0;shadow=0;html=0;" parent="7zTR-X2xP12r-fFkZYNF-0" vertex="1">
          <mxGeometry y="104" width="160" height="26" as="geometry" />
        </mxCell>
        <mxCell id="7zTR-X2xP12r-fFkZYNF-7" value="- email varchar(100)" style="text;align=left;verticalAlign=top;spacingLeft=4;spacingRight=4;overflow=hidden;rotatable=0;points=[[0,0.5],[1,0.5]];portConstraint=eastwest;rounded=0;shadow=0;html=0;" parent="7zTR-X2xP12r-fFkZYNF-0" vertex="1">
          <mxGeometry y="130" width="160" height="26" as="geometry" />
        </mxCell>
        <mxCell id="7zTR-X2xP12r-fFkZYNF-8" value="- level_user varchar(11)" style="text;align=left;verticalAlign=top;spacingLeft=4;spacingRight=4;overflow=hidden;rotatable=0;points=[[0,0.5],[1,0.5]];portConstraint=eastwest;rounded=0;shadow=0;html=0;" parent="7zTR-X2xP12r-fFkZYNF-0" vertex="1">
          <mxGeometry y="156" width="160" height="26" as="geometry" />
        </mxCell>
        <mxCell id="7zTR-X2xP12r-fFkZYNF-4" value="" style="line;html=1;strokeWidth=1;align=left;verticalAlign=middle;spacingTop=-1;spacingLeft=3;spacingRight=3;rotatable=0;labelPosition=right;points=[];portConstraint=eastwest;" parent="7zTR-X2xP12r-fFkZYNF-0" vertex="1">
          <mxGeometry y="182" width="160" height="8" as="geometry" />
        </mxCell>
        <mxCell id="7zTR-X2xP12r-fFkZYNF-5" value="+ add ()&#xa;" style="text;align=left;verticalAlign=top;spacingLeft=4;spacingRight=4;overflow=hidden;rotatable=0;points=[[0,0.5],[1,0.5]];portConstraint=eastwest;" parent="7zTR-X2xP12r-fFkZYNF-0" vertex="1">
          <mxGeometry y="190" width="160" height="26" as="geometry" />
        </mxCell>
        <mxCell id="7zTR-X2xP12r-fFkZYNF-11" value="+ view ()&#xa;" style="text;align=left;verticalAlign=top;spacingLeft=4;spacingRight=4;overflow=hidden;rotatable=0;points=[[0,0.5],[1,0.5]];portConstraint=eastwest;" parent="7zTR-X2xP12r-fFkZYNF-0" vertex="1">
          <mxGeometry y="216" width="160" height="26" as="geometry" />
        </mxCell>
        <mxCell id="7zTR-X2xP12r-fFkZYNF-13" value="+ update ()&#xa;" style="text;align=left;verticalAlign=top;spacingLeft=4;spacingRight=4;overflow=hidden;rotatable=0;points=[[0,0.5],[1,0.5]];portConstraint=eastwest;" parent="7zTR-X2xP12r-fFkZYNF-0" vertex="1">
          <mxGeometry y="242" width="160" height="26" as="geometry" />
        </mxCell>
        <mxCell id="7zTR-X2xP12r-fFkZYNF-14" value="+ delete ()&#xa;" style="text;align=left;verticalAlign=top;spacingLeft=4;spacingRight=4;overflow=hidden;rotatable=0;points=[[0,0.5],[1,0.5]];portConstraint=eastwest;" parent="7zTR-X2xP12r-fFkZYNF-0" vertex="1">
          <mxGeometry y="268" width="160" height="26" as="geometry" />
        </mxCell>
        <mxCell id="7zTR-X2xP12r-fFkZYNF-39" value="surat_keluar" style="swimlane;fontStyle=2;align=center;verticalAlign=top;childLayout=stackLayout;horizontal=1;startSize=26;horizontalStack=0;resizeParent=1;resizeLast=0;collapsible=1;marginBottom=0;rounded=0;shadow=0;strokeWidth=1;" parent="WIyWlLk6GJQsqaUBKTNV-1" vertex="1">
          <mxGeometry x="279" y="73" width="209" height="334" as="geometry">
            <mxRectangle x="230" y="140" width="160" height="26" as="alternateBounds" />
          </mxGeometry>
        </mxCell>
        <mxCell id="7zTR-X2xP12r-fFkZYNF-40" value="- id_surat_keluar int(11)&#xa;" style="text;align=left;verticalAlign=top;spacingLeft=4;spacingRight=4;overflow=hidden;rotatable=0;points=[[0,0.5],[1,0.5]];portConstraint=eastwest;" parent="7zTR-X2xP12r-fFkZYNF-39" vertex="1">
          <mxGeometry y="26" width="209" height="26" as="geometry" />
        </mxCell>
        <mxCell id="7zTR-X2xP12r-fFkZYNF-41" value="- perihal_surat_keluar varchar(225)" style="text;align=left;verticalAlign=top;spacingLeft=4;spacingRight=4;overflow=hidden;rotatable=0;points=[[0,0.5],[1,0.5]];portConstraint=eastwest;rounded=0;shadow=0;html=0;" parent="7zTR-X2xP12r-fFkZYNF-39" vertex="1">
          <mxGeometry y="52" width="209" height="26" as="geometry" />
        </mxCell>
        <mxCell id="7zTR-X2xP12r-fFkZYNF-42" value="- id_kontak_surat_keluar int(11)" style="text;align=left;verticalAlign=top;spacingLeft=4;spacingRight=4;overflow=hidden;rotatable=0;points=[[0,0.5],[1,0.5]];portConstraint=eastwest;rounded=0;shadow=0;html=0;" parent="7zTR-X2xP12r-fFkZYNF-39" vertex="1">
          <mxGeometry y="78" width="209" height="26" as="geometry" />
        </mxCell>
        <mxCell id="7zTR-X2xP12r-fFkZYNF-43" value="- tgl_surat_keluar date()" style="text;align=left;verticalAlign=top;spacingLeft=4;spacingRight=4;overflow=hidden;rotatable=0;points=[[0,0.5],[1,0.5]];portConstraint=eastwest;rounded=0;shadow=0;html=0;" parent="7zTR-X2xP12r-fFkZYNF-39" vertex="1">
          <mxGeometry y="104" width="209" height="26" as="geometry" />
        </mxCell>
        <mxCell id="7zTR-X2xP12r-fFkZYNF-44" value="- tgl_arsip_surat_keluar date()" style="text;align=left;verticalAlign=top;spacingLeft=4;spacingRight=4;overflow=hidden;rotatable=0;points=[[0,0.5],[1,0.5]];portConstraint=eastwest;rounded=0;shadow=0;html=0;" parent="7zTR-X2xP12r-fFkZYNF-39" vertex="1">
          <mxGeometry y="130" width="209" height="26" as="geometry" />
        </mxCell>
        <mxCell id="7zTR-X2xP12r-fFkZYNF-45" value="- upload_surat_keluar varchar(225)" style="text;align=left;verticalAlign=top;spacingLeft=4;spacingRight=4;overflow=hidden;rotatable=0;points=[[0,0.5],[1,0.5]];portConstraint=eastwest;rounded=0;shadow=0;html=0;" parent="7zTR-X2xP12r-fFkZYNF-39" vertex="1">
          <mxGeometry y="156" width="209" height="26" as="geometry" />
        </mxCell>
        <mxCell id="7zTR-X2xP12r-fFkZYNF-46" value="" style="line;html=1;strokeWidth=1;align=left;verticalAlign=middle;spacingTop=-1;spacingLeft=3;spacingRight=3;rotatable=0;labelPosition=right;points=[];portConstraint=eastwest;" parent="7zTR-X2xP12r-fFkZYNF-39" vertex="1">
          <mxGeometry y="182" width="209" height="8" as="geometry" />
        </mxCell>
        <mxCell id="7zTR-X2xP12r-fFkZYNF-47" value="+ add ()&#xa;" style="text;align=left;verticalAlign=top;spacingLeft=4;spacingRight=4;overflow=hidden;rotatable=0;points=[[0,0.5],[1,0.5]];portConstraint=eastwest;" parent="7zTR-X2xP12r-fFkZYNF-39" vertex="1">
          <mxGeometry y="190" width="209" height="26" as="geometry" />
        </mxCell>
        <mxCell id="7zTR-X2xP12r-fFkZYNF-48" value="+ view ()&#xa;" style="text;align=left;verticalAlign=top;spacingLeft=4;spacingRight=4;overflow=hidden;rotatable=0;points=[[0,0.5],[1,0.5]];portConstraint=eastwest;" parent="7zTR-X2xP12r-fFkZYNF-39" vertex="1">
          <mxGeometry y="216" width="209" height="26" as="geometry" />
        </mxCell>
        <mxCell id="7zTR-X2xP12r-fFkZYNF-49" value="+ update ()&#xa;" style="text;align=left;verticalAlign=top;spacingLeft=4;spacingRight=4;overflow=hidden;rotatable=0;points=[[0,0.5],[1,0.5]];portConstraint=eastwest;" parent="7zTR-X2xP12r-fFkZYNF-39" vertex="1">
          <mxGeometry y="242" width="209" height="26" as="geometry" />
        </mxCell>
        <mxCell id="7zTR-X2xP12r-fFkZYNF-50" value="+ delete ()&#xa;" style="text;align=left;verticalAlign=top;spacingLeft=4;spacingRight=4;overflow=hidden;rotatable=0;points=[[0,0.5],[1,0.5]];portConstraint=eastwest;" parent="WIyWlLk6GJQsqaUBKTNV-1" vertex="1">
          <mxGeometry x="279" y="342" width="209" height="26" as="geometry" />
        </mxCell>
        <mxCell id="7zTR-X2xP12r-fFkZYNF-52" value="+ print ()&#xa;" style="text;align=left;verticalAlign=top;spacingLeft=4;spacingRight=4;overflow=hidden;rotatable=0;points=[[0,0.5],[1,0.5]];portConstraint=eastwest;" parent="WIyWlLk6GJQsqaUBKTNV-1" vertex="1">
          <mxGeometry x="279" y="367" width="209" height="26" as="geometry" />
        </mxCell>
        <mxCell id="7zTR-X2xP12r-fFkZYNF-53" value="kontak" style="swimlane;fontStyle=2;align=center;verticalAlign=top;childLayout=stackLayout;horizontal=1;startSize=26;horizontalStack=0;resizeParent=1;resizeLast=0;collapsible=1;marginBottom=0;rounded=0;shadow=0;strokeWidth=1;" parent="WIyWlLk6GJQsqaUBKTNV-1" vertex="1">
          <mxGeometry x="588" y="73" width="160" height="275" as="geometry">
            <mxRectangle x="230" y="140" width="160" height="26" as="alternateBounds" />
          </mxGeometry>
        </mxCell>
        <mxCell id="7zTR-X2xP12r-fFkZYNF-54" value="- id_kontak int(11)&#xa;" style="text;align=left;verticalAlign=top;spacingLeft=4;spacingRight=4;overflow=hidden;rotatable=0;points=[[0,0.5],[1,0.5]];portConstraint=eastwest;" parent="7zTR-X2xP12r-fFkZYNF-53" vertex="1">
          <mxGeometry y="26" width="160" height="26" as="geometry" />
        </mxCell>
        <mxCell id="7zTR-X2xP12r-fFkZYNF-55" value="- kontak varchar(225)" style="text;align=left;verticalAlign=top;spacingLeft=4;spacingRight=4;overflow=hidden;rotatable=0;points=[[0,0.5],[1,0.5]];portConstraint=eastwest;rounded=0;shadow=0;html=0;" parent="7zTR-X2xP12r-fFkZYNF-53" vertex="1">
          <mxGeometry y="52" width="160" height="26" as="geometry" />
        </mxCell>
        <mxCell id="7zTR-X2xP12r-fFkZYNF-56" value="- alamat varchar(225)" style="text;align=left;verticalAlign=top;spacingLeft=4;spacingRight=4;overflow=hidden;rotatable=0;points=[[0,0.5],[1,0.5]];portConstraint=eastwest;rounded=0;shadow=0;html=0;" parent="7zTR-X2xP12r-fFkZYNF-53" vertex="1">
          <mxGeometry y="78" width="160" height="26" as="geometry" />
        </mxCell>
        <mxCell id="7zTR-X2xP12r-fFkZYNF-57" value="- no_telp varchar(15)" style="text;align=left;verticalAlign=top;spacingLeft=4;spacingRight=4;overflow=hidden;rotatable=0;points=[[0,0.5],[1,0.5]];portConstraint=eastwest;rounded=0;shadow=0;html=0;" parent="7zTR-X2xP12r-fFkZYNF-53" vertex="1">
          <mxGeometry y="104" width="160" height="26" as="geometry" />
        </mxCell>
        <mxCell id="7zTR-X2xP12r-fFkZYNF-60" value="" style="line;html=1;strokeWidth=1;align=left;verticalAlign=middle;spacingTop=-1;spacingLeft=3;spacingRight=3;rotatable=0;labelPosition=right;points=[];portConstraint=eastwest;" parent="7zTR-X2xP12r-fFkZYNF-53" vertex="1">
          <mxGeometry y="130" width="160" height="8" as="geometry" />
        </mxCell>
        <mxCell id="7zTR-X2xP12r-fFkZYNF-61" value="+ add ()&#xa;" style="text;align=left;verticalAlign=top;spacingLeft=4;spacingRight=4;overflow=hidden;rotatable=0;points=[[0,0.5],[1,0.5]];portConstraint=eastwest;" parent="7zTR-X2xP12r-fFkZYNF-53" vertex="1">
          <mxGeometry y="138" width="160" height="26" as="geometry" />
        </mxCell>
        <mxCell id="7zTR-X2xP12r-fFkZYNF-62" value="+ view ()&#xa;" style="text;align=left;verticalAlign=top;spacingLeft=4;spacingRight=4;overflow=hidden;rotatable=0;points=[[0,0.5],[1,0.5]];portConstraint=eastwest;" parent="7zTR-X2xP12r-fFkZYNF-53" vertex="1">
          <mxGeometry y="164" width="160" height="26" as="geometry" />
        </mxCell>
        <mxCell id="7zTR-X2xP12r-fFkZYNF-63" value="+ update ()&#xa;" style="text;align=left;verticalAlign=top;spacingLeft=4;spacingRight=4;overflow=hidden;rotatable=0;points=[[0,0.5],[1,0.5]];portConstraint=eastwest;" parent="7zTR-X2xP12r-fFkZYNF-53" vertex="1">
          <mxGeometry y="190" width="160" height="26" as="geometry" />
        </mxCell>
        <mxCell id="7zTR-X2xP12r-fFkZYNF-64" value="+ delete ()&#xa;" style="text;align=left;verticalAlign=top;spacingLeft=4;spacingRight=4;overflow=hidden;rotatable=0;points=[[0,0.5],[1,0.5]];portConstraint=eastwest;" parent="7zTR-X2xP12r-fFkZYNF-53" vertex="1">
          <mxGeometry y="216" width="160" height="26" as="geometry" />
        </mxCell>
        <mxCell id="7zTR-X2xP12r-fFkZYNF-66" value="+ print ()&#xa;" style="text;align=left;verticalAlign=top;spacingLeft=4;spacingRight=4;overflow=hidden;rotatable=0;points=[[0,0.5],[1,0.5]];portConstraint=eastwest;" parent="7zTR-X2xP12r-fFkZYNF-53" vertex="1">
          <mxGeometry y="242" width="160" height="26" as="geometry" />
        </mxCell>
        <mxCell id="mDTJm0ME-Eaotl8-kPo7-11" value="surat_masuk" style="swimlane;fontStyle=2;align=center;verticalAlign=top;childLayout=stackLayout;horizontal=1;startSize=26;horizontalStack=0;resizeParent=1;resizeLast=0;collapsible=1;marginBottom=0;rounded=0;shadow=0;strokeWidth=1;" vertex="1" parent="WIyWlLk6GJQsqaUBKTNV-1">
          <mxGeometry x="875" y="72" width="209" height="334" as="geometry">
            <mxRectangle x="230" y="140" width="160" height="26" as="alternateBounds" />
          </mxGeometry>
        </mxCell>
        <mxCell id="mDTJm0ME-Eaotl8-kPo7-12" value="- id_surat_masuk int(11)&#xa;" style="text;align=left;verticalAlign=top;spacingLeft=4;spacingRight=4;overflow=hidden;rotatable=0;points=[[0,0.5],[1,0.5]];portConstraint=eastwest;" vertex="1" parent="mDTJm0ME-Eaotl8-kPo7-11">
          <mxGeometry y="26" width="209" height="26" as="geometry" />
        </mxCell>
        <mxCell id="mDTJm0ME-Eaotl8-kPo7-13" value="- perihal_surat_masuk varchar(225)" style="text;align=left;verticalAlign=top;spacingLeft=4;spacingRight=4;overflow=hidden;rotatable=0;points=[[0,0.5],[1,0.5]];portConstraint=eastwest;rounded=0;shadow=0;html=0;" vertex="1" parent="mDTJm0ME-Eaotl8-kPo7-11">
          <mxGeometry y="52" width="209" height="26" as="geometry" />
        </mxCell>
        <mxCell id="mDTJm0ME-Eaotl8-kPo7-14" value="- id_kontak_surat_masuk int(11)" style="text;align=left;verticalAlign=top;spacingLeft=4;spacingRight=4;overflow=hidden;rotatable=0;points=[[0,0.5],[1,0.5]];portConstraint=eastwest;rounded=0;shadow=0;html=0;" vertex="1" parent="mDTJm0ME-Eaotl8-kPo7-11">
          <mxGeometry y="78" width="209" height="26" as="geometry" />
        </mxCell>
        <mxCell id="mDTJm0ME-Eaotl8-kPo7-15" value="- tgl_surat_masuk date()" style="text;align=left;verticalAlign=top;spacingLeft=4;spacingRight=4;overflow=hidden;rotatable=0;points=[[0,0.5],[1,0.5]];portConstraint=eastwest;rounded=0;shadow=0;html=0;" vertex="1" parent="mDTJm0ME-Eaotl8-kPo7-11">
          <mxGeometry y="104" width="209" height="26" as="geometry" />
        </mxCell>
        <mxCell id="mDTJm0ME-Eaotl8-kPo7-16" value="- tgl_arsip_surat_masuk date()" style="text;align=left;verticalAlign=top;spacingLeft=4;spacingRight=4;overflow=hidden;rotatable=0;points=[[0,0.5],[1,0.5]];portConstraint=eastwest;rounded=0;shadow=0;html=0;" vertex="1" parent="mDTJm0ME-Eaotl8-kPo7-11">
          <mxGeometry y="130" width="209" height="26" as="geometry" />
        </mxCell>
        <mxCell id="mDTJm0ME-Eaotl8-kPo7-17" value="- upload_surat_masuk varchar(225)" style="text;align=left;verticalAlign=top;spacingLeft=4;spacingRight=4;overflow=hidden;rotatable=0;points=[[0,0.5],[1,0.5]];portConstraint=eastwest;rounded=0;shadow=0;html=0;" vertex="1" parent="mDTJm0ME-Eaotl8-kPo7-11">
          <mxGeometry y="156" width="209" height="26" as="geometry" />
        </mxCell>
        <mxCell id="mDTJm0ME-Eaotl8-kPo7-18" value="" style="line;html=1;strokeWidth=1;align=left;verticalAlign=middle;spacingTop=-1;spacingLeft=3;spacingRight=3;rotatable=0;labelPosition=right;points=[];portConstraint=eastwest;" vertex="1" parent="mDTJm0ME-Eaotl8-kPo7-11">
          <mxGeometry y="182" width="209" height="8" as="geometry" />
        </mxCell>
        <mxCell id="mDTJm0ME-Eaotl8-kPo7-19" value="+ add ()&#xa;" style="text;align=left;verticalAlign=top;spacingLeft=4;spacingRight=4;overflow=hidden;rotatable=0;points=[[0,0.5],[1,0.5]];portConstraint=eastwest;" vertex="1" parent="mDTJm0ME-Eaotl8-kPo7-11">
          <mxGeometry y="190" width="209" height="26" as="geometry" />
        </mxCell>
        <mxCell id="mDTJm0ME-Eaotl8-kPo7-20" value="+ view ()&#xa;" style="text;align=left;verticalAlign=top;spacingLeft=4;spacingRight=4;overflow=hidden;rotatable=0;points=[[0,0.5],[1,0.5]];portConstraint=eastwest;" vertex="1" parent="mDTJm0ME-Eaotl8-kPo7-11">
          <mxGeometry y="216" width="209" height="26" as="geometry" />
        </mxCell>
        <mxCell id="mDTJm0ME-Eaotl8-kPo7-21" value="+ update ()&#xa;" style="text;align=left;verticalAlign=top;spacingLeft=4;spacingRight=4;overflow=hidden;rotatable=0;points=[[0,0.5],[1,0.5]];portConstraint=eastwest;" vertex="1" parent="mDTJm0ME-Eaotl8-kPo7-11">
          <mxGeometry y="242" width="209" height="26" as="geometry" />
        </mxCell>
        <mxCell id="mDTJm0ME-Eaotl8-kPo7-33" value="+ delete ()&#xa;" style="text;align=left;verticalAlign=top;spacingLeft=4;spacingRight=4;overflow=hidden;rotatable=0;points=[[0,0.5],[1,0.5]];portConstraint=eastwest;" vertex="1" parent="WIyWlLk6GJQsqaUBKTNV-1">
          <mxGeometry x="876" y="340" width="209" height="26" as="geometry" />
        </mxCell>
        <mxCell id="mDTJm0ME-Eaotl8-kPo7-34" value="+ print ()&#xa;" style="text;align=left;verticalAlign=top;spacingLeft=4;spacingRight=4;overflow=hidden;rotatable=0;points=[[0,0.5],[1,0.5]];portConstraint=eastwest;" vertex="1" parent="WIyWlLk6GJQsqaUBKTNV-1">
          <mxGeometry x="876" y="366" width="209" height="26" as="geometry" />
        </mxCell>
        <mxCell id="mDTJm0ME-Eaotl8-kPo7-35" value="kontak2" style="swimlane;fontStyle=2;align=center;verticalAlign=top;childLayout=stackLayout;horizontal=1;startSize=26;horizontalStack=0;resizeParent=1;resizeLast=0;collapsible=1;marginBottom=0;rounded=0;shadow=0;strokeWidth=1;" vertex="1" parent="WIyWlLk6GJQsqaUBKTNV-1">
          <mxGeometry x="588" y="448" width="160" height="200" as="geometry">
            <mxRectangle x="230" y="140" width="160" height="26" as="alternateBounds" />
          </mxGeometry>
        </mxCell>
        <mxCell id="mDTJm0ME-Eaotl8-kPo7-36" value="- id_kontak2 int(11)&#xa;" style="text;align=left;verticalAlign=top;spacingLeft=4;spacingRight=4;overflow=hidden;rotatable=0;points=[[0,0.5],[1,0.5]];portConstraint=eastwest;" vertex="1" parent="mDTJm0ME-Eaotl8-kPo7-35">
          <mxGeometry y="26" width="160" height="26" as="geometry" />
        </mxCell>
        <mxCell id="mDTJm0ME-Eaotl8-kPo7-37" value="- kontak2 varchar(225)" style="text;align=left;verticalAlign=top;spacingLeft=4;spacingRight=4;overflow=hidden;rotatable=0;points=[[0,0.5],[1,0.5]];portConstraint=eastwest;rounded=0;shadow=0;html=0;" vertex="1" parent="mDTJm0ME-Eaotl8-kPo7-35">
          <mxGeometry y="52" width="160" height="26" as="geometry" />
        </mxCell>
        <mxCell id="mDTJm0ME-Eaotl8-kPo7-40" value="" style="line;html=1;strokeWidth=1;align=left;verticalAlign=middle;spacingTop=-1;spacingLeft=3;spacingRight=3;rotatable=0;labelPosition=right;points=[];portConstraint=eastwest;" vertex="1" parent="mDTJm0ME-Eaotl8-kPo7-35">
          <mxGeometry y="78" width="160" height="8" as="geometry" />
        </mxCell>
        <mxCell id="mDTJm0ME-Eaotl8-kPo7-41" value="+ add ()&#xa;" style="text;align=left;verticalAlign=top;spacingLeft=4;spacingRight=4;overflow=hidden;rotatable=0;points=[[0,0.5],[1,0.5]];portConstraint=eastwest;" vertex="1" parent="mDTJm0ME-Eaotl8-kPo7-35">
          <mxGeometry y="86" width="160" height="26" as="geometry" />
        </mxCell>
        <mxCell id="mDTJm0ME-Eaotl8-kPo7-42" value="+ view ()&#xa;" style="text;align=left;verticalAlign=top;spacingLeft=4;spacingRight=4;overflow=hidden;rotatable=0;points=[[0,0.5],[1,0.5]];portConstraint=eastwest;" vertex="1" parent="mDTJm0ME-Eaotl8-kPo7-35">
          <mxGeometry y="112" width="160" height="26" as="geometry" />
        </mxCell>
        <mxCell id="mDTJm0ME-Eaotl8-kPo7-43" value="+ update ()&#xa;" style="text;align=left;verticalAlign=top;spacingLeft=4;spacingRight=4;overflow=hidden;rotatable=0;points=[[0,0.5],[1,0.5]];portConstraint=eastwest;" vertex="1" parent="mDTJm0ME-Eaotl8-kPo7-35">
          <mxGeometry y="138" width="160" height="26" as="geometry" />
        </mxCell>
        <mxCell id="mDTJm0ME-Eaotl8-kPo7-44" value="+ delete ()&#xa;" style="text;align=left;verticalAlign=top;spacingLeft=4;spacingRight=4;overflow=hidden;rotatable=0;points=[[0,0.5],[1,0.5]];portConstraint=eastwest;" vertex="1" parent="mDTJm0ME-Eaotl8-kPo7-35">
          <mxGeometry y="164" width="160" height="26" as="geometry" />
        </mxCell>
        <mxCell id="mDTJm0ME-Eaotl8-kPo7-46" value="disposisi" style="swimlane;fontStyle=2;align=center;verticalAlign=top;childLayout=stackLayout;horizontal=1;startSize=26;horizontalStack=0;resizeParent=1;resizeLast=0;collapsible=1;marginBottom=0;rounded=0;shadow=0;strokeWidth=1;" vertex="1" parent="WIyWlLk6GJQsqaUBKTNV-1">
          <mxGeometry x="876" y="441" width="209" height="372" as="geometry">
            <mxRectangle x="230" y="140" width="160" height="26" as="alternateBounds" />
          </mxGeometry>
        </mxCell>
        <mxCell id="mDTJm0ME-Eaotl8-kPo7-47" value="- id_disposisi int(11)&#xa;" style="text;align=left;verticalAlign=top;spacingLeft=4;spacingRight=4;overflow=hidden;rotatable=0;points=[[0,0.5],[1,0.5]];portConstraint=eastwest;" vertex="1" parent="mDTJm0ME-Eaotl8-kPo7-46">
          <mxGeometry y="26" width="209" height="26" as="geometry" />
        </mxCell>
        <mxCell id="mDTJm0ME-Eaotl8-kPo7-48" value="- nomor_disposisi varchar(100)" style="text;align=left;verticalAlign=top;spacingLeft=4;spacingRight=4;overflow=hidden;rotatable=0;points=[[0,0.5],[1,0.5]];portConstraint=eastwest;rounded=0;shadow=0;html=0;" vertex="1" parent="mDTJm0ME-Eaotl8-kPo7-46">
          <mxGeometry y="52" width="209" height="26" as="geometry" />
        </mxCell>
        <mxCell id="mDTJm0ME-Eaotl8-kPo7-49" value="- perihal_disposisi varchar(225)" style="text;align=left;verticalAlign=top;spacingLeft=4;spacingRight=4;overflow=hidden;rotatable=0;points=[[0,0.5],[1,0.5]];portConstraint=eastwest;rounded=0;shadow=0;html=0;" vertex="1" parent="mDTJm0ME-Eaotl8-kPo7-46">
          <mxGeometry y="78" width="209" height="26" as="geometry" />
        </mxCell>
        <mxCell id="mDTJm0ME-Eaotl8-kPo7-50" value="- id_kontak2_disposisi int(11)" style="text;align=left;verticalAlign=top;spacingLeft=4;spacingRight=4;overflow=hidden;rotatable=0;points=[[0,0.5],[1,0.5]];portConstraint=eastwest;rounded=0;shadow=0;html=0;" vertex="1" parent="mDTJm0ME-Eaotl8-kPo7-46">
          <mxGeometry y="104" width="209" height="26" as="geometry" />
        </mxCell>
        <mxCell id="mDTJm0ME-Eaotl8-kPo7-51" value="- id_surat_masuk int(11)" style="text;align=left;verticalAlign=top;spacingLeft=4;spacingRight=4;overflow=hidden;rotatable=0;points=[[0,0.5],[1,0.5]];portConstraint=eastwest;rounded=0;shadow=0;html=0;" vertex="1" parent="mDTJm0ME-Eaotl8-kPo7-46">
          <mxGeometry y="130" width="209" height="26" as="geometry" />
        </mxCell>
        <mxCell id="mDTJm0ME-Eaotl8-kPo7-52" value="- tgl_diterima_disposisi date()" style="text;align=left;verticalAlign=top;spacingLeft=4;spacingRight=4;overflow=hidden;rotatable=0;points=[[0,0.5],[1,0.5]];portConstraint=eastwest;rounded=0;shadow=0;html=0;" vertex="1" parent="mDTJm0ME-Eaotl8-kPo7-46">
          <mxGeometry y="156" width="209" height="26" as="geometry" />
        </mxCell>
        <mxCell id="mDTJm0ME-Eaotl8-kPo7-65" value="- tgl_arsip_disposisi date()" style="text;align=left;verticalAlign=top;spacingLeft=4;spacingRight=4;overflow=hidden;rotatable=0;points=[[0,0.5],[1,0.5]];portConstraint=eastwest;rounded=0;shadow=0;html=0;" vertex="1" parent="mDTJm0ME-Eaotl8-kPo7-46">
          <mxGeometry y="182" width="209" height="26" as="geometry" />
        </mxCell>
        <mxCell id="mDTJm0ME-Eaotl8-kPo7-66" value="- upload_disposisi varchar(225)" style="text;align=left;verticalAlign=top;spacingLeft=4;spacingRight=4;overflow=hidden;rotatable=0;points=[[0,0.5],[1,0.5]];portConstraint=eastwest;rounded=0;shadow=0;html=0;" vertex="1" parent="mDTJm0ME-Eaotl8-kPo7-46">
          <mxGeometry y="208" width="209" height="26" as="geometry" />
        </mxCell>
        <mxCell id="mDTJm0ME-Eaotl8-kPo7-53" value="" style="line;html=1;strokeWidth=1;align=left;verticalAlign=middle;spacingTop=-1;spacingLeft=3;spacingRight=3;rotatable=0;labelPosition=right;points=[];portConstraint=eastwest;" vertex="1" parent="mDTJm0ME-Eaotl8-kPo7-46">
          <mxGeometry y="234" width="209" height="8" as="geometry" />
        </mxCell>
        <mxCell id="mDTJm0ME-Eaotl8-kPo7-71" value="+ print ()&#xa;" style="text;align=left;verticalAlign=top;spacingLeft=4;spacingRight=4;overflow=hidden;rotatable=0;points=[[0,0.5],[1,0.5]];portConstraint=eastwest;" vertex="1" parent="mDTJm0ME-Eaotl8-kPo7-46">
          <mxGeometry y="242" width="209" height="26" as="geometry" />
        </mxCell>
        <mxCell id="mDTJm0ME-Eaotl8-kPo7-70" value="+ delete ()&#xa;" style="text;align=left;verticalAlign=top;spacingLeft=4;spacingRight=4;overflow=hidden;rotatable=0;points=[[0,0.5],[1,0.5]];portConstraint=eastwest;" vertex="1" parent="mDTJm0ME-Eaotl8-kPo7-46">
          <mxGeometry y="268" width="209" height="26" as="geometry" />
        </mxCell>
        <mxCell id="mDTJm0ME-Eaotl8-kPo7-69" value="+ update ()&#xa;" style="text;align=left;verticalAlign=top;spacingLeft=4;spacingRight=4;overflow=hidden;rotatable=0;points=[[0,0.5],[1,0.5]];portConstraint=eastwest;" vertex="1" parent="mDTJm0ME-Eaotl8-kPo7-46">
          <mxGeometry y="294" width="209" height="26" as="geometry" />
        </mxCell>
        <mxCell id="mDTJm0ME-Eaotl8-kPo7-68" value="+ view ()&#xa;" style="text;align=left;verticalAlign=top;spacingLeft=4;spacingRight=4;overflow=hidden;rotatable=0;points=[[0,0.5],[1,0.5]];portConstraint=eastwest;" vertex="1" parent="mDTJm0ME-Eaotl8-kPo7-46">
          <mxGeometry y="320" width="209" height="26" as="geometry" />
        </mxCell>
        <mxCell id="mDTJm0ME-Eaotl8-kPo7-67" value="+ add ()&#xa;" style="text;align=left;verticalAlign=top;spacingLeft=4;spacingRight=4;overflow=hidden;rotatable=0;points=[[0,0.5],[1,0.5]];portConstraint=eastwest;" vertex="1" parent="mDTJm0ME-Eaotl8-kPo7-46">
          <mxGeometry y="346" width="209" height="26" as="geometry" />
        </mxCell>
        <mxCell id="mDTJm0ME-Eaotl8-kPo7-73" value="" style="endArrow=classic;html=1;rounded=0;entryX=1;entryY=0.5;entryDx=0;entryDy=0;exitX=0;exitY=0.5;exitDx=0;exitDy=0;" edge="1" parent="WIyWlLk6GJQsqaUBKTNV-1" source="7zTR-X2xP12r-fFkZYNF-54" target="7zTR-X2xP12r-fFkZYNF-42">
          <mxGeometry width="50" height="50" relative="1" as="geometry">
            <mxPoint x="585" y="120" as="sourcePoint" />
            <mxPoint x="515" y="150" as="targetPoint" />
          </mxGeometry>
        </mxCell>
        <mxCell id="mDTJm0ME-Eaotl8-kPo7-74" value="" style="endArrow=classic;html=1;rounded=0;entryX=0;entryY=0.5;entryDx=0;entryDy=0;" edge="1" parent="WIyWlLk6GJQsqaUBKTNV-1" target="mDTJm0ME-Eaotl8-kPo7-14">
          <mxGeometry width="50" height="50" relative="1" as="geometry">
            <mxPoint x="748" y="110" as="sourcePoint" />
            <mxPoint x="864" y="174" as="targetPoint" />
          </mxGeometry>
        </mxCell>
        <mxCell id="mDTJm0ME-Eaotl8-kPo7-75" value="" style="endArrow=classic;html=1;rounded=0;entryX=1;entryY=0.5;entryDx=0;entryDy=0;" edge="1" parent="WIyWlLk6GJQsqaUBKTNV-1" target="mDTJm0ME-Eaotl8-kPo7-51">
          <mxGeometry width="50" height="50" relative="1" as="geometry">
            <mxPoint x="1084" y="110" as="sourcePoint" />
            <mxPoint x="1120" y="590" as="targetPoint" />
            <Array as="points">
              <mxPoint x="1120" y="110" />
              <mxPoint x="1120" y="584" />
            </Array>
          </mxGeometry>
        </mxCell>
        <mxCell id="mDTJm0ME-Eaotl8-kPo7-76" value="" style="endArrow=classic;html=1;rounded=0;entryX=0;entryY=0.5;entryDx=0;entryDy=0;" edge="1" parent="WIyWlLk6GJQsqaUBKTNV-1" target="mDTJm0ME-Eaotl8-kPo7-50">
          <mxGeometry width="50" height="50" relative="1" as="geometry">
            <mxPoint x="748" y="490" as="sourcePoint" />
            <mxPoint x="875" y="543" as="targetPoint" />
          </mxGeometry>
        </mxCell>
      </root>
    </mxGraphModel>
  </diagram>
</mxfile>
